<?xml version="1.0" encoding="UTF-8" standalone="no"?>
<!DOCTYPE svg PUBLIC "-//W3C//DTD SVG 1.1//EN" "http://www.w3.org/Graphics/SVG/1.1/DTD/svg11.dtd">
<svg width="100%" height="100%" viewBox="0 0 1020 415" version="1.1" xmlns="http://www.w3.org/2000/svg" xmlns:xlink="http://www.w3.org/1999/xlink" xml:space="preserve" xmlns:serif="http://www.serif.com/" style="fill-rule:evenodd;clip-rule:evenodd;stroke-linecap:round;stroke-linejoin:round;stroke-miterlimit:1.5;">
    <g transform="matrix(1,0,0,1,-113,-244)">
        <g transform="matrix(144,0,0,144,1081.42,519.115)">
        </g>
        <text x="238.675px" y="519.115px" style="font-family:'ArialRoundedMTBold', 'Arial Rounded MT Bold', sans-serif;font-size:144px;">K<tspan x="339.509px 423.749px 503.559px 584.776px 659.945px 739.756px 819.566px 900.783px 974.827px " y="519.115px 519.115px 519.115px 519.115px 519.115px 519.115px 519.115px 519.115px 519.115px ">denTeeLLC</tspan></text>
    </g>
    <g transform="matrix(1,0,0,1,0,-300)">
        <path d="M550,451.438L550,384L103,384L103,656L549,656L549,589" style="fill:none;stroke:black;stroke-width:13px;"/>
    </g>
    <g transform="matrix(1,0,0,1,0,-300)">
        <path d="M514,385L514,350.5L66,350.5L66,623L103,624" style="fill:none;stroke:black;stroke-width:13px;"/>
    </g>
    <g transform="matrix(1,0,0,1,-22,9)">
        <g transform="matrix(46.7015,0,0,46.7015,957.129,334.309)">
        </g>
        <text x="610.273px" y="334.309px" style="font-family:'ArialRoundedMTBold', 'Arial Rounded MT Bold', sans-serif;font-size:46.702px;fill:rgb(92,92,92);">w<tspan x="660.234px 699.98px 741.777px 783.575px 823.937px 861.858px 887.123px 928.921px " y="334.309px 334.309px 334.309px 334.309px 334.309px 334.309px 334.309px 334.309px ">ebdesign</tspan></text>
    </g>
</svg>
